HIERARCHY
ROOT Hips
{
	OFFSET -14.64140 90.27770 -84.91600
	CHANNELS 6 Xposition Yposition Zposition Zrotation Xrotation Yrotation
	JOINT Spine
	{
		OFFSET 0.00000 13.20850 -1.60436
		CHANNELS 3 Zrotation Xrotation Yrotation
		JOINT Spine1
		{
			OFFSET 0.00000 8.61716 0.00000
			CHANNELS 3 Zrotation Xrotation Yrotation
			JOINT Spine2
			{
				OFFSET 0.00000 8.61717 0.00000
				CHANNELS 3 Zrotation Xrotation Yrotation
				JOINT Spine3
				{
					OFFSET 0.00000 8.61717 0.00000
					CHANNELS 3 Zrotation Xrotation Yrotation
					JOINT Neck
					{
						OFFSET 0.00000 11.07920 1.10792
						CHANNELS 3 Zrotation Xrotation Yrotation
						JOINT Neck1
						{
							OFFSET 0.00000 7.08032 0.00000
							CHANNELS 3 Zrotation Xrotation Yrotation
							JOINT Head
							{
								OFFSET 0.00000 7.08031 0.00000
								CHANNELS 3 Zrotation Xrotation Yrotation
								End site
								{
									OFFSET 0.00000 0.00000 0.00000
								}
							}
						}
					}
					JOINT RightShoulder
					{
						OFFSET -0.01000 7.91373 5.19711
						CHANNELS 3 Zrotation Xrotation Yrotation
						JOINT RightArm
						{
							OFFSET -18.41580 0.00000 0.00000
							CHANNELS 3 Zrotation Xrotation Yrotation
							JOINT RightForeArm
							{
								OFFSET -29.11090 0.00000 0.00000
								CHANNELS 3 Zrotation Xrotation Yrotation
								JOINT RightHand
								{
									OFFSET -24.65040 0.00000 0.00000
									CHANNELS 3 Zrotation Xrotation Yrotation
									JOINT RightHandThumb1
									{
										OFFSET -5.35114 -0.85590 3.97906
										CHANNELS 3 Zrotation Xrotation Yrotation
										JOINT RightHandThumb2
										{
											OFFSET -4.52789 0.00000 0.00000
											CHANNELS 3 Zrotation Xrotation Yrotation
											JOINT RightHandThumb3
											{
												OFFSET -2.46976 0.00000 0.00000
												CHANNELS 3 Zrotation Xrotation Yrotation
												End site
												{
													OFFSET 0.00000 0.00000 0.00000
												}
											}
										}
									}
									JOINT RightHandIndex1
									{
										OFFSET -14.26970 0.00000 2.88139
										CHANNELS 3 Zrotation Xrotation Yrotation
										JOINT RightHandIndex2
										{
											OFFSET -5.48836 0.00000 0.00000
											CHANNELS 3 Zrotation Xrotation Yrotation
											JOINT RightHandIndex3
											{
												OFFSET -3.01859 0.00000 0.00000
												CHANNELS 3 Zrotation Xrotation Yrotation
												End site
												{
													OFFSET 0.00000 0.00000 0.00000
												}
											}
										}
									}
									JOINT RightHandMiddle1
									{
										OFFSET -14.26970 0.00000 -0.09147
										CHANNELS 3 Zrotation Xrotation Yrotation
										JOINT RightHandMiddle2
										{
											OFFSET -6.17441 0.00000 0.00000
											CHANNELS 3 Zrotation Xrotation Yrotation
											JOINT RightHandMiddle3
											{
												OFFSET -3.56743 0.00000 0.00000
												CHANNELS 3 Zrotation Xrotation Yrotation
												End site
												{
													OFFSET 0.00000 0.00000 0.00000
												}
											}
										}
									}
									JOINT RightHandRing1
									{
										OFFSET -12.69180 0.00000 -3.06433
										CHANNELS 3 Zrotation Xrotation Yrotation
										JOINT RightHandRing2
										{
											OFFSET -5.62556 0.00000 0.00000
											CHANNELS 3 Zrotation Xrotation Yrotation
											JOINT RightHandRing3
											{
												OFFSET -3.56744 0.00000 0.00000
												CHANNELS 3 Zrotation Xrotation Yrotation
												End site
												{
													OFFSET 0.00000 0.00000 0.00000
												}
											}
										}
									}
									JOINT RightHandPinky1
									{
										OFFSET -11.11390 0.00000 -6.03719
										CHANNELS 3 Zrotation Xrotation Yrotation
										JOINT RightHandPinky2
										{
											OFFSET -4.52789 0.00000 0.00000
											CHANNELS 3 Zrotation Xrotation Yrotation
											JOINT RightHandPinky3
											{
												OFFSET -2.46976 0.00000 0.00000
												CHANNELS 3 Zrotation Xrotation Yrotation
												End site
												{
													OFFSET 0.00000 0.00000 0.00000
												}
											}
										}
									}
								}
							}
						}
					}
					JOINT LeftShoulder
					{
						OFFSET 0.01000 7.91373 5.19711
						CHANNELS 3 Zrotation Xrotation Yrotation
						JOINT LeftArm
						{
							OFFSET 18.41580 0.00000 0.00000
							CHANNELS 3 Zrotation Xrotation Yrotation
							JOINT LeftForeArm
							{
								OFFSET 29.11090 0.00000 0.00000
								CHANNELS 3 Zrotation Xrotation Yrotation
								JOINT LeftHand
								{
									OFFSET 24.65040 0.00000 0.00000
									CHANNELS 3 Zrotation Xrotation Yrotation
									JOINT LeftHandThumb1
									{
										OFFSET 5.35114 -0.85590 3.97906
										CHANNELS 3 Zrotation Xrotation Yrotation
										JOINT LeftHandThumb2
										{
											OFFSET 4.52789 0.00000 0.00000
											CHANNELS 3 Zrotation Xrotation Yrotation
											JOINT LeftHandThumb3
											{
												OFFSET 2.46977 0.00000 0.00000
												CHANNELS 3 Zrotation Xrotation Yrotation
												End site
												{
													OFFSET 0.00000 0.00000 0.00000
												}
											}
										}
									}
									JOINT LeftHandIndex1
									{
										OFFSET 14.26970 0.00000 2.88139
										CHANNELS 3 Zrotation Xrotation Yrotation
										JOINT LeftHandIndex2
										{
											OFFSET 5.48836 0.00000 0.00000
											CHANNELS 3 Zrotation Xrotation Yrotation
											JOINT LeftHandIndex3
											{
												OFFSET 3.01859 0.00000 0.00000
												CHANNELS 3 Zrotation Xrotation Yrotation
												End site
												{
													OFFSET 0.00000 0.00000 0.00000
												}
											}
										}
									}
									JOINT LeftHandMiddle1
									{
										OFFSET 14.26970 0.00000 -0.09147
										CHANNELS 3 Zrotation Xrotation Yrotation
										JOINT LeftHandMiddle2
										{
											OFFSET 6.17440 0.00000 0.00000
											CHANNELS 3 Zrotation Xrotation Yrotation
											JOINT LeftHandMiddle3
											{
												OFFSET 3.56744 0.00000 0.00000
												CHANNELS 3 Zrotation Xrotation Yrotation
												End site
												{
													OFFSET 0.00000 0.00000 0.00000
												}
											}
										}
									}
									JOINT LeftHandRing1
									{
										OFFSET 12.69180 0.00000 -3.06433
										CHANNELS 3 Zrotation Xrotation Yrotation
										JOINT LeftHandRing2
										{
											OFFSET 5.62556 0.00000 0.00000
											CHANNELS 3 Zrotation Xrotation Yrotation
											JOINT LeftHandRing3
											{
												OFFSET 3.56744 0.00000 0.00000
												CHANNELS 3 Zrotation Xrotation Yrotation
												End site
												{
													OFFSET 0.00000 0.00000 0.00000
												}
											}
										}
									}
									JOINT LeftHandPinky1
									{
										OFFSET 11.11390 0.00000 -6.03719
										CHANNELS 3 Zrotation Xrotation Yrotation
										JOINT LeftHandPinky2
										{
											OFFSET 4.52789 0.00000 0.00000
											CHANNELS 3 Zrotation Xrotation Yrotation
											JOINT LeftHandPinky3
											{
												OFFSET 2.46976 0.00000 0.00000
												CHANNELS 3 Zrotation Xrotation Yrotation
												End site
												{
													OFFSET 0.00000 0.00000 0.00000
												}
											}
										}
									}
								}
							}
						}
					}
					JOINT pCube4
					{
						OFFSET 0.00000 10.91090 1.10792
						CHANNELS 3 Zrotation Xrotation Yrotation
						End site
						{
							OFFSET 0.00000 0.00000 0.00000
						}
					}
				}
			}
		}
	}
	JOINT RightUpLeg
	{
		OFFSET -9.98441 0.00000 0.00000
		CHANNELS 3 Zrotation Xrotation Yrotation
		JOINT RightLeg
		{
			OFFSET 0.00000 -42.11790 0.00000
			CHANNELS 3 Zrotation Xrotation Yrotation
			JOINT RightFoot
			{
				OFFSET 0.00000 -45.00020 -0.00001
				CHANNELS 3 Zrotation Xrotation Yrotation
				JOINT RightForeFoot
				{
					OFFSET 0.00000 -3.74820 0.00000
					CHANNELS 3 Zrotation Xrotation Yrotation
					JOINT RightToeBase
					{
						OFFSET 0.00000 0.06325 14.43120
						CHANNELS 3 Zrotation Xrotation Yrotation
						End site
						{
							OFFSET 0.00000 0.00000 0.00000
						}
					}
				}
			}
		}
	}
	JOINT LeftUpLeg
	{
		OFFSET 9.98441 0.00000 0.00000
		CHANNELS 3 Zrotation Xrotation Yrotation
		JOINT LeftLeg
		{
			OFFSET 0.00000 -42.11800 0.00000
			CHANNELS 3 Zrotation Xrotation Yrotation
			JOINT LeftFoot
			{
				OFFSET 0.00000 -45.00070 0.00000
				CHANNELS 3 Zrotation Xrotation Yrotation
				JOINT LeftForeFoot
				{
					OFFSET 0.00000 -3.74824 0.00000
					CHANNELS 3 Zrotation Xrotation Yrotation
					JOINT LeftToeBase
					{
						OFFSET 0.00000 0.06325 14.43110
						CHANNELS 3 Zrotation Xrotation Yrotation
						End site
						{
							OFFSET 0.00000 0.00000 0.00000
						}
					}
				}
			}
		}
	}
}
MOTION
Frames: 4
Frame Time: 0.050000
0.049341469244174624 0.022753219206851222 0.04137299755786317 0.02808796587595256 -0.03446302452010084 -0.04743602636611898 -3.2068941804334443 2.1018441684938267 -0.6734044191791022 -1.0257561492339127 3.8101900413751526 0.3887425481384098 -0.936170660280271 -1.810097338454815 -2.2658283044420586 -0.9053622370543466 0.5518334967056193 -0.9600153771925906 -2.298776860018199 13.648029002949604 5.394346739764173 -0.5317517645848957 -0.7988929064445076 11.604839064705592 -2.0958011599406645 -16.61074604053829 1.00019468318538 -3.8994452690025865 1.5771031221955636 -13.209721169355646 73.00667743912696 20.313599112996418 10.265205317985437 11.63866380976852 5.621396958664428 70.66768789542137 18.18377828247052 -0.39698908797372084 -3.703791742616948 4.544257566374295 -0.1330774042893733 -1.6128711621028875 -0.01784580600973635 0.014667897130826632 -56.222210480098326 -0.0011333388398121322 0.0010027102255829679 -56.24189966341193 -38.75126568792286 -0.002653477993441093 -0.025336387485017885 0.016603579633750937 0.004102086134757039 0.031011503886320194 -0.015299200225250732 0.04439688211686297 0.0016689803105222755 -36.69530833424001 -0.04364629002505168 -0.03943107910682226 0.020182747328518578 0.016468409429976592 -0.024574907704943357 0.005171764780918171 0.019200183540700695 0.005888147074332238 -19.73898513278913 0.03880203432689353 0.04034621706908351 -0.04691799492610811 0.041587308839161535 0.00630362626421105 0.045519592187364594 -0.006233684297787541 -0.03266114654620539 24.06083562684441 -0.0038776970467779602 -0.009946117680626683 28.817084607515913 0.00460493294576497 -0.000925536054637482 28.851403372776694 -0.009190737863098554 0.029789017318091058 10.256762800319917 2.1441908278504944 12.326036262442708 -70.63602850204725 8.471326201235126 -28.729029258063804 -65.41584588482839 9.63734722103064 -92.0793051816582 -7.376531160917407 2.408680981754401 -2.077470830289816 -0.4530719300742639 0.01856247555819695 -8.159052727413224 -0.022167521113011342 0.016095400528830694 44.57701269333062 0.026025556228742943 0.03241425920893707 44.526808302038376 12.413162306131253 -0.0006835331734972107 -0.015922524977601216 -0.026224589120440657 -0.04917886883716321 -0.001497377340726874 -0.0048002975504188635 0.027253305622235033 -0.026885718284904853 11.09916891932167 0.008161055034035932 0.01984971843715269 0.00920296975481056 -0.00336502766702378 0.01893291714509521 0.0006810362751427146 0.01893346189032849 0.019215329083302757 4.7595651161423564 0.044163125921311684 0.0020885218986527614 0.0030698875075084527 -0.00876332672285404 -0.0005094082749170703 0.03853539798823552 -0.02479522042759463 -0.037082277507833536 -5.5939569107566856 0.018285359386581247 0.02513915840314822 -6.674660544425977 -0.015214753732034018 -0.0036628863073769123 -6.700433050333706 0.005411017576607083 0.014172459528776014 0.026938614305666977 -0.00966822725740247 0.02824718984653132 8.046410536995602 3.5390628226718968 -19.20462338054889 -0.009220945235842605 10.402318165000343 0.005060365079470481 -5.625793337939408 -15.672784027991515 3.1867303086885115 0.02814387621972701 -0.0018827129233094664 -0.038964552233594914 -0.008652924857417504 4.697405129276761 -0.01382375229567284 12.417139771012486 -8.282063552022356 6.901059561690311 -0.04169862370583067 46.415958777888676 0.04913031901553835 -4.303696197738816 -14.750563431211672 -3.883143081002931 0.0008190761112826067 0.017557632057103083 -0.028988644302590207 -0.029007612305133875 -10.782097338085915 -0.04661786320171792 
0.036226814324538954 0.010178733130001715 -0.012320326139671023 -0.022684440124888402 0.02440736019427348 0.02918777386174184 -3.115834310616775 2.1034911779844547 -0.6505896298334528 -1.0929481191669388 3.786101581090248 0.3643054129162855 -0.9589266500776105 -1.7862935379909088 -2.1370069950815296 -0.8352263238039094 0.5567322768335138 -0.9803106509254621 -2.1633503255397244 13.691806201257679 4.94453141493074 -0.5288441783889406 -0.8129040240106499 10.424311011578922 -1.8942388984989118 -16.56381760058817 0.9314190021241784 -4.110975193880416 1.6564546542029726 -13.229123146948663 73.12710731119016 18.474213829471296 11.37106950906808 12.372515586505378 6.049882663040814 71.91399373943524 17.17520041034331 -0.3581637702660493 -3.453773152476959 4.5737865251046825 -0.1283558048386542 -1.6024004209500855 -0.00836525355545458 -0.049299620870638744 -56.22387664239144 0.035048429730147004 -0.026517132493652812 -56.238474065192385 -38.770070678604824 0.006132626309431319 0.01606952208402367 0.03331340227575325 0.017986597004276173 -0.005176846367180625 0.006434970115130324 0.011946517088196378 0.005092736627583026 -36.66257825159788 -0.026976359833381397 0.03328528262737945 0.02193333521663372 0.02875030870511978 0.01608763448316433 0.019813034221775494 -0.03311899081951791 0.019704029493756867 -19.761364150321764 0.02710160052942745 -0.008897957755487977 0.021003546724163585 -0.03815618339284188 -0.038860947348003466 -0.0362237005245429 -0.0289764268920276 0.022251288099136186 24.064098831241388 -0.029258632522244143 -0.016284952550316974 28.89866071900783 -0.02524428387802183 -0.03176510623904758 28.878008015179596 -0.009858425571521192 0.005481277827025695 10.137262126457653 2.08232669105962 12.397123187649074 -70.47896609120946 8.195126743617815 -28.352919519986095 -64.08798713199941 10.214620213242005 -92.26557560884721 -6.967805144449333 2.721173994553593 -2.3214418502559826 -0.5124282223785321 0.04014301332941726 -8.081867503862373 -0.008234845191597884 -0.018428055772561368 44.56240638869171 -0.03375404643291688 -0.0031364686808484014 44.61028294777078 12.465898892352051 -0.010451130862601387 -0.004081298144443914 -0.007924797385867441 0.016052749777424172 -0.03355226946208278 0.015249018343923186 -0.04707656415149417 -0.028445798158715833 11.092484442464116 -0.0077309622092306875 -0.03238216316501546 0.007215728847500119 -0.021354319529879043 0.03758265638415674 -0.03562886473795958 0.022005517541470333 -0.030584460668842618 4.8181174441443595 0.020878353676709954 -0.012411333642480444 0.02513951621879747 0.008830575994687498 -0.04829972499395764 0.02867181768577627 -0.013190793693512786 -0.0062981747647720306 -5.624749030304123 -0.045275925597078666 -0.027680081468292924 -6.734579884616988 0.0010452233020955802 -0.020028252256462684 -6.701675323785788 -0.023825967988912344 -0.005150058216403221 -0.03569493778803893 0.036547753193626326 -0.009729920078793865 8.047246481167454 3.505965957769189 -19.26096664370604 -0.013559026468613417 10.423845488211157 0.03253155666821544 -5.664315031589984 -15.672326703093674 3.175568389156258 0.010338505454346792 -0.019088434650742208 -0.024440214942098675 -0.00756791250479939 4.677172867030472 0.03904638869482438 12.495355872122552 -8.242531469773011 6.889782039576401 0.03794907263377187 46.41320295360409 0.005809116915504635 -4.325206006854076 -14.705286603280678 -3.841381293417486 -0.03169022730549471 -0.014462797013034578 0.042934693631778396 0.04698799844316111 -10.75905647658413 0.014103118343437368 
0.02621267087762033 0.024746492803482303 -0.008471718660401304 0.01081483991012474 -0.0166016822299709 0.03963768541732787 -3.0742154684700163 2.182229800599853 -0.6605850356130274 -1.0918141486978794 3.8019241770219785 0.33275688055046154 -1.0577965657719628 -1.7647607899051536 -1.9624691902573048 -0.7165224849079699 0.5236332138924328 -0.9713613002853446 -2.0082097656924693 13.768159165139961 4.516214645060156 -0.5080819256516267 -0.7158814586985983 9.177999021796552 -1.753248908523861 -16.47598551070926 0.8756166361296968 -4.388022008002061 1.7506868163557339 -13.283568707917173 72.93875951271819 16.912652362191725 12.147566923014836 12.90120838270985 6.0318892229952255 72.17147069863891 16.261020270649468 -0.3158930533707813 -3.024271365070257 4.538489198803374 -0.09312075869353018 -1.5513553365395143 -0.007646826318191709 -0.04167647709116176 -56.21878035737955 0.009098797380571358 -0.007550815434289459 -56.22613504723312 -38.7490196651816 0.01703146832062862 -0.029220405229728224 -0.003252545519971545 0.02216928064357548 0.0403546558309473 0.03815985568907902 0.008232648062097921 -0.03086596646937207 -36.68266337561879 -0.009015917725644777 0.027434799538779395 -0.025447117801910262 0.0412863048280222 -0.03541448024356097 -0.008047081246537096 -0.0016377557932009557 -0.03234175087086857 -19.74673748899039 0.004020313865997631 -0.01260047359652979 0.02971101497253891 0.025430824527375644 0.0004749279541840522 -0.019405088005733363 -0.009946088176455826 0.025771935835039474 24.096193710942654 7.958262951019594e-05 0.041779644060047506 28.84663628884165 -0.04000253051997312 -0.03603311357329726 28.83050931550896 0.004405557370309098 0.015948008378585527 9.894727049789896 2.1180524108269823 12.421858380706547 -70.15013493189109 8.828482004814322 -27.628946989293787 -60.86737510670023 10.497850751085807 -91.14800716407228 -6.6052871215386455 3.0022488223394186 -2.534770300363346 -0.47980848542838866 0.06009292390009373 -8.148268124564678 -0.03528894821169888 -0.019359569869292218 44.59165229711407 -0.029649918646675228 0.0231289518934718 44.55193605819304 12.450158545351945 0.034816224878216895 0.0487401028822829 -0.029800176520817387 -0.018962960598290605 -0.011910640053888557 -0.002419858902928782 0.0349815847162015 -0.04000002764815322 11.153685332489136 -0.0012807545630194046 -0.014254071749916808 -0.047703435127129754 -0.03933366256643303 0.005046166421205302 -0.019054445424999553 -0.04964990545891911 -0.020083509156930714 4.7842262901176795 -0.039415899035037755 0.04682378689343641 -0.01017306899677015 0.046059647723633086 -0.020663656424991923 0.04391446901370233 0.007739574833065969 -0.025761106357947643 -5.605223603234834 -0.010236491898188762 0.03781833788737642 -6.72816665783908 0.002596556785717572 0.014979704817729046 -6.766988311880359 0.006250139238610403 0.004414835598820587 0.025970647203749933 0.04910768927981102 0.02695151523191875 8.024930598543028 3.448189938208283 -19.214393411607286 -0.036370399780922956 10.389254551886454 0.05782978889328137 -5.606030528351996 -15.689695453324052 3.1625221392386305 -0.013154998844308947 -0.020243716291403476 0.007236944347434818 0.013495814164698815 4.670635618632331 0.01818092462916141 12.410503525316384 -8.211366074556754 6.9126639099039116 -0.033678984332565824 46.42301382607126 0.009229234057820767 -4.311321377332526 -14.717340125725299 -3.866393043338921 0.028123510669068104 -0.010244009549845152 0.04174421034401197 -0.04597701971480394 -10.772264142664152 0.0038138927725408947 
0.018246528411409786 0.022594285118688356 -0.020042797945327286 0.04599177951866218 -0.017121396628118925 0.03114893147687795 -3.025444233854692 2.194497684987512 -0.6625632191637825 -1.0685818453288973 3.8322707477148525 0.3841566516810971 -1.0353975661571844 -1.7321080110363172 -1.903612261605505 -0.6986928680063507 0.5871421198785711 -0.9080538163971706 -1.8521015327299157 13.70905017665939 4.136816261107681 -0.49696815121826 -0.703563257503932 8.264283908758623 -1.6517430159772208 -16.410447223131488 0.7608588381515347 -4.501378355537051 1.7951299700175418 -13.345563197093593 72.90128431707791 16.440591179944096 12.088155429619716 12.029497205241855 5.840963856585083 69.85372692101765 15.630601497393744 -0.2529904722305526 -2.677024415926899 4.523592467536763 -0.10351013925395076 -1.6368658998372763 -0.02373477560187547 0.009657188173943931 -56.26985202774746 -0.018270150371226302 0.026973351851988354 -56.255322115161775 -38.73509520382442 -0.039035101065588926 -0.013149720316552118 -0.022266505292285757 -0.024808632343293727 0.017735241798610916 0.049368408145561996 0.026801860616060758 -0.04755854768507645 -36.68279451544507 -0.008104343510648577 -0.02252488204911975 -0.012541890774604417 -0.048195616261806705 0.011630531231777163 0.0404834351353205 -0.01614343039665531 -0.02634758623952535 -19.72887308853374 0.04952501846178096 -0.036598122434768246 -0.011474770310869721 -0.019466892355464286 0.0076814935223255155 0.011074717216643411 0.0018252411866819579 -0.03473461408892564 24.053562875365593 -0.04158184098252387 -0.027177809774990087 28.88837645829578 -0.024447528925224952 -0.006081744892190407 28.866100836069872 -0.030519639762741392 0.026236151108365822 9.664524449562137 2.0770688960378147 12.529273972195009 -69.87165887484353 9.795588714599146 -26.81156063578658 -56.62238855346394 10.979129409274694 -88.4483470258231 -6.283408230224316 3.036615482819858 -2.463619412740945 -0.48220760643894484 0.10365393793710488 -8.141511212974486 -0.003006693922829661 -0.03441909702958948 44.56796966917577 -0.005074130077486605 -0.03731969157869841 44.52722023145361 12.430493986016936 0.03637100141461085 -0.002162245234824795 -0.03226184178527109 0.0023895591529292473 0.03859197776112194 -0.03844497941713373 -0.04128447566771454 0.014173476285083505 11.08152927764461 0.0007160822737545884 -0.02739385351816031 0.013928997047848316 -0.01169064195770164 0.028948968502996924 0.011311462756638501 0.0345340815322052 -0.03721627541349735 4.797299531610039 -0.025455713193587616 0.029908979037180938 0.025117851494771293 0.001782200409123147 0.049177067370690414 0.017132957910892227 0.008997066891432693 0.03079400200854363 -5.5683798814096015 0.02001981321049849 -0.042222271553147527 -6.742842073227701 -0.027581015292976938 -0.021112405156343418 -6.687988294468003 0.044907260878244544 0.039712507610881895 -0.008831850124678126 0.0032223802081538027 -0.01601799695653068 8.050838759402858 3.494500267738938 -19.172638862929027 0.025286758364429198 10.412924569328398 0.02864668540007406 -5.619672202511648 -15.688055212464066 3.1504579128789207 0.03390386194909309 -0.020652619344146736 -0.02975112913471401 0.04769038967910977 4.704325022031959 0.03985614345541564 12.43102016388001 -8.234631674443317 6.873019791160993 0.004549552078789503 46.40462039462669 -0.012315901539754391 -4.321052682385011 -14.721679220303587 -3.7944789384278583 0.035771003202223275 -0.045366163292134665 -0.04048284079824097 0.028626385223698304 -10.769708940426872 -0.02041156685823391 
